<svg xmlns="http://www.w3.org/2000/svg" width="46" height="65" viewBox="0 0 46 65"><g fill="none" fill-rule="evenodd"><path d="M42.6 63.5H3a2 2 0 0 1-2-2V10h41.6c1 0 1.8.8 1.8 1.8v50c0 1-.8 1.8-1.8 1.8zM1 9.6l34.8-8c.4-.1.9 0 1.2.2.3.2.5.6.5 1V9" stroke="#0F346C" stroke-width="1.5" stroke-linecap="round"></path><path d="M24.5 26.6l-.2 3.3h-3.1l-.2-3.3c-.4 0-1 .2-1.4.4-.2 2.1.4 7.3-3.5 9.7l-.1 7a9.8 9.8 0 0 0 13 .3l.1-7c-3.7-2.7-3-7.8-3.2-10l-1.4-.4z" fill="#0F346C"></path><path d="M-9 0h64v64H-9z"></path></g></svg>