<svg xmlns="http://www.w3.org/2000/svg" width="332" height="255" viewBox="0 0 332 255"><g transform="translate(1 1)" fill="none" fill-rule="evenodd"><path d="M232.1 191.5a8 8 0 0 0-4.5-.6c-5.7 1-21 3.3-30.4 3-3.8 0-1.4 1-3 4.6-2.9 6.6 36.2 7.8 33.3 8.7-3.5 1.2-2.3 9.6-8 10.6-5.6 1-21.4-.7-28.4.2a193 193 0 0 1-56-1c-7-3.8-11.4-6.6-13-10.8-.8-2 22.6-2.3 24.7-3 5.7-1.7 7.2-5.6 6.4-8.5-1.4-5.1-16-5-19.2-5.3-6.8-.7-10.4-4.7-22.4-4.4-5.8 0-14.2 3.3-21.3 6.7a9.7 9.7 0 0 1-13.7-8.8V99.5c0-5.1 4.2-9.3 9.3-9.3h170.8c5.1 0 9.3 4.2 9.3 9.3v91.2c0 4-2.8 7.3-6.7 7.8h-.1c-3.3.3-6.7.4-10 .4 0 .6-11.9-5-17-7.4z" fill="#FCAF8B" fill-rule="nonzero"></path><path d="M161.5 220.3c-17 .5-27.4.6-30.9-1-7.4-3.2-8.1-8.9-9.8-13.2-.8-1.9 22.4-1.6 24.4-2.6 3.8-2 6.3-5.8 6.4-8.8 0-5.1-9.9-4-18.1-4.2-10-.1-12.8-4.4-23.3-4.2-7.4.1-18.1 4.6-25.6 8.2a5.5 5.5 0 0 1-8-5v-38.8a4 4 0 0 1 3-3.8c8-1.7 30-4.7 51.5 7.9 32 18.9 39.3 65.2 30.4 65.5z" fill="#20366A" fill-rule="nonzero"></path><path d="M159 54.6a78.5 78.5 0 0 0-14.7-12.8c-3.8-2.8-9-5.5-13.7-3.7-8.4 3-15 9.4-13.9 19 1.3 10 10.1 14.3 18.5 17.5l23.1 9c2.3.8 5.4 2 7.8 1.6 5.3-1 2.3-11.3 1.4-14.7a40 40 0 0 0-8.6-16z" fill="#829EC4" fill-rule="nonzero"></path><path d="M159.8 47.8A63.2 63.2 0 0 0 147.2 36c-6-4.3-14-6.5-20.8-2.4a18 18 0 0 0-8.8 18c.3 1.9 1.1 3.8 3.1 4.4 6.4 2 13 3.8 19.3 6.2 4.9 1.8 9.6 4 14 6.6 4.5 2.7 8 8 13.2 9 .4.2.8.2 1.2 0 .3-.1.6-.4.7-.8 2.4-4.5.5-10.4-1.2-14.8-2-5.2-4.7-10-8-14.4z" fill="#ABCBF4" fill-rule="nonzero"></path><path d="M183.4 56.3c4.3-4.8 9.2-9.1 14.6-12.7 3.8-2.8 9-5.5 13.7-3.8 8.4 3 15 9.5 13.9 19.1-1.3 10-10.1 14.3-18.5 17.5L184 85.3c-2.3.9-5.4 2-7.8 1.6-5.3-.9-2.3-11.2-1.4-14.6a40 40 0 0 1 8.6-16z" fill="#829EC4" fill-rule="nonzero"></path><path d="M182.4 49.7c3.7-4.5 8-8.5 12.6-11.9 6.1-4.3 14.1-6.5 20.9-2.4a18 18 0 0 1 8.8 18c-.3 1.9-1.2 3.9-3.1 4.5-6.4 1.9-13 3.7-19.4 6.1-4.8 1.8-9.5 4-14 6.7-4.4 2.6-8 7.9-13.2 9h-1c-.4-.2-.7-.5-.9-.8-2.3-4.6-.4-10.4 1.3-14.9 2-5.1 4.6-10 8-14.3zM147.3 89.2a46 46 0 0 0-18.7 30c-.8 5.3 8 0 9.9-1.2.5-.4 6-4.8 6.5-4 3 5.8 6.4 11.3 10.1 16.7-.8-1.3 0-4 .2-5.4 1.8-13.3 5-28.3 14-38.6.7-.6 1-1.4 1.2-2.2-.3-3.5-7.8-2.8-10-2.2a46.3 46.3 0 0 0-13.2 6.9z" fill="#ABCBF4" fill-rule="nonzero"></path><path d="M191.2 89.7a46 46 0 0 1 19.2 29.5c1 5.4-8 .3-9.9-1-.5-.3-6.2-4.5-6.6-3.7-2.9 5.8-6.2 11.4-9.8 16.8.8-1.3 0-4-.3-5.3-2-13.3-5.4-28.2-14.7-38.3-.7-.6-1.1-1.4-1.2-2.2.1-3.6 7.7-3 10-2.4 4.7 1.5 9.2 3.7 13.3 6.6z" fill="#ABCBF4" fill-rule="nonzero"></path><path d="M233 119l-.3 5.9h-5.8l-.3-6-2.6.8c-.4 3.8.8 12.9-6.2 17.3v12.5c7 5.8 17 5.8 24 0V137c-7-4.4-5.8-13.5-6.2-17.3l-2.6-.7z" fill="#0F346C"></path><path d="M73 199.7V88.6c0-2 1.6-3.6 3.5-3.6h75.8M216.6 219.1h-71.4M43.3 210.9c14.8 0 30.7-2.3 44.5-10.3 28.7-16.3 32.9-8 41.5-7 12.1 1.3 21.7-1.7 21.2 2.1-.6 5-3.6 9-15.1 9.3-7 .3-18.3.3-20.8 2.3M.2 206c6.7 1 18 3.3 31 4.3" stroke="#0F346C" stroke-width="2" stroke-linecap="round" stroke-linejoin="round"></path><path d="M119.8 206.1s5.8 10 11.3 11.7" stroke="#20366A" stroke-width="2" stroke-linecap="round"></path><path d="M153.6 219.8c-2.6 8.2-4.1 7.2-20.9 13.2-25.3 7.5-40.6-5.1-49.4-2.8-8.7 2.4-48 12-61 18.2M26 192.8c9.7 3.7 29 6.6 38 5.5M229.5 210s-4-4.8-17.6-4.8c-12 0-16.6-4.1-17.6-8.2a2.8 2.8 0 0 1 2.8-3.4c4.1 1.1 14.6 1.3 21-1.2 10.4-4 19.3-1.7 32.2 7.3 8.4 5.8 37.2 15.5 75.5 12.6M226.2 210c-.9 2.5-2.7 8.5-9 9.1M184.5 219.8c2.2 4.6 1 5.4 9.4 7.9s21.6 7 27.1 7.3c5.6.4 27.2-5 33.3-4 6.1.8 60.2 22 75.2 21.6" stroke="#0F346C" stroke-width="2" stroke-linecap="round" stroke-linejoin="round"></path><path d="M170.8 82.3c-2-14-10.8-38.4-38.6-46-6.7-2-16.3 11.5-13.8 20.5 13 .6 35.8 9.7 44.8 20.2M118.7 57.4a76 76 0 0 0 30 21.5M171.3 82.7c2-14 10.8-38.5 38.6-46.2 6.7-1.8 16.3 11.6 13.8 20.6-12 .6-29.6 7-39.7 17M223.4 57.7c-5.3 8-22.7 19.9-39.4 24.5" stroke="#20366A" stroke-width="2" stroke-linecap="round"></path><path d="M156.4 109.3a55 55 0 0 1 10.7-20.4M171.3 85.4c-5.9-5.2-11.7-2.9-11.7-2.9s-25.2 14.2-26 37.4c6.5-7 12-8.3 12-8.3s.8 9.7 6.7 16.3c.4-3 1-6.4 1.8-10.1M195.5 111.5s-.8 9.7-6.6 16.3c-1.4-10.2-5.3-27-13.3-37M171.3 85.4c3.2-4.2 12.5-2.7 12.5-2.7s23 14 23.8 37.2c-1.8-1.9-3.7-3.6-5.8-5.1" stroke="#20366A" stroke-width="2" stroke-linecap="round" stroke-linejoin="round"></path><path d="M203 85h57c1.6 0 2.9 1.3 2.9 2.8v109.1c12.2.7 24.4-.4 36.3-3.3" stroke="#0F346C" stroke-width="2" stroke-linecap="round" stroke-linejoin="round"></path><path d="M299.3 27.4c-5.4 4.9-10.5-.9-16 4-5.3 4.8 0 10.5-5.5 15.3-5.4 4.9-10.4-1-15.9 4-5.4 4.9 0 10.4-5.5 15.2M171.8 38.7c-1.9-6 4.1-7.8 2.4-13.8-1.8-6-8-4.2-9.7-10.2-1.9-6 4.2-7.8 2.3-13.8M87.6 10.3c4 6.1-2.1 10 1.8 16 4 6.1 10 2.1 13.9 8.2M285.4 95.7c4.7-3 7.6 1.8 12.4-1 4.7-3 1.7-7.7 6.4-10.6" stroke="#FFCB47" stroke-width="2" stroke-linecap="round" stroke-linejoin="round"></path><path d="M254 3.7c.4 0 .7.3.7.6l.4 3.5c0 .2.2.4.4.5l3 1.7a.7.7 0 0 1 0 1.2l-3.1 1.5c-.2 0-.4.2-.4.5l-.6 3.4c0 .4-.3.6-.7.6-.2 0-.4 0-.5-.2l-2.4-2.6a.7.7 0 0 0-.5-.2l-3.5.5h-.1a.7.7 0 0 1-.6-1l1.7-3.1V10l-1.6-3.2a.7.7 0 0 1 .6-1h.2l3.4.7h.1l.5-.2 2.5-2.5.5-.2v.1zm0-2.8c-1 0-1.8.3-2.4 1l-1.7 1.6-2.4-.5h-.7a3.4 3.4 0 0 0-3 5l1 2.2-1.2 2a3.4 3.4 0 0 0 3 5.2h.5l2.4-.3 1.6 1.8a3.4 3.4 0 0 0 6-1.8l.4-2.4 2.2-1a3.4 3.4 0 0 0 .1-6.2l-2-1.1-.4-2.4c-.2-1.7-1.6-3-3.4-3V.9zM59.2 4h.3L62 5.4h.5L65 4.2a.6.6 0 0 1 .8.6l-.6 2.8.1.5 2 2.1a.6.6 0 0 1-.4 1l-2.8.2c-.2 0-.4.2-.5.3l-1.3 2.5a.6.6 0 0 1-1 0l-1.2-2.6c0-.2-.2-.3-.4-.3l-2.8-.5a.6.6 0 0 1-.2-1l2.1-2 .2-.4-.4-2.9a.6.6 0 0 1 .6-.6h-.1zm0-2.9A3.3 3.3 0 0 0 56 5l.2 1.7-1.3 1.1a3.3 3.3 0 0 0 1.6 5.8l1.7.3.7 1.6a3.3 3.3 0 0 0 6 .2l.8-1.5 1.7-.1a3.3 3.3 0 0 0 2-5.6l-1.1-1.2.4-1.7A3.3 3.3 0 0 0 64 1.8l-1.6.7-1.4-.9c-.6-.2-1.1-.4-1.7-.4z" fill="#FFCB47" fill-rule="nonzero"></path><circle stroke="#FFCB47" stroke-width="2" stroke-linecap="round" stroke-linejoin="round" cx="242.8" cy="46.4" r="4.1"></circle><circle stroke="#FFCB47" stroke-width="2" stroke-linecap="round" stroke-linejoin="round" cx="286.1" cy="66.9" r="4.1"></circle><circle stroke="#FFCB47" stroke-width="2" stroke-linecap="round" stroke-linejoin="round" cx="279.2" cy="113.6" r="3.7"></circle><circle stroke="#FFCB47" stroke-width="2" stroke-linecap="round" stroke-linejoin="round" cx="57.8" cy="100.7" r="4.1"></circle><circle stroke="#FFCB47" stroke-width="2" stroke-linecap="round" stroke-linejoin="round" cx="203.5" cy="10.9" r="6.5"></circle><circle stroke="#FFCB47" stroke-width="2" stroke-linecap="round" stroke-linejoin="round" cx="66.8" cy="45.7" r="8.7"></circle><circle stroke="#FFCB47" stroke-width="2" stroke-linecap="round" stroke-linejoin="round" cx="127.1" cy="5.1" r="4.6"></circle><circle stroke="#FFCB47" stroke-width="2" stroke-linecap="round" stroke-linejoin="round" cx="96.6" cy="63.7" r="4.6"></circle><path d="M34 65.5c5.4 2.1 3.3 7.4 8.6 9.5 5.3 2 7.4-3.3 12.6-1.2 3.2 1.2 3.7 3.5 4.7 5.7" stroke="#FFCB47" stroke-width="2" stroke-linecap="round" stroke-linejoin="round"></path></g></svg>