<svg xmlns="http://www.w3.org/2000/svg" width="283" height="325" viewBox="0 0 283 325"><g transform="translate(.4 2)" fill="none" fill-rule="evenodd"><circle fill="#E5EEFA" fill-rule="nonzero" cx="137.9" cy="168.2" r="98.9"></circle><circle fill="#FFF" fill-rule="nonzero" cx="146.2" cy="157.2" r="98.9"></circle><path d="M107.5 151.8h-.6a21.2 21.2 0 1 0-34.2 20.1 35.5 35.5 0 1 0 34.8-20.1z" fill="#E5EEFA" fill-rule="nonzero"></path><path d="M114.1 80.6c-.5 12 .5 24 2.7 35.8.6 3.4.2 16.5 5.4 16.7a3 3 0 0 0 2.8-2c.6-1.5.6-3.2 1-4.7 1.5-4.5 6.7-6.8 10.7-8.6 6.3-2.8 12.9-4 19.4-6.2 5.9-2 15.6-8.8 14.7-16.1-.8-6.7-11-5.5-16-2.3a58.6 58.6 0 0 1-7.5 4.8c-1.7.8-3.9 2.7-5.6.7-1.8-2 .5-4 1.5-5.8 2-3.3 6.8-8.3 7.5-12.3 1-4.7-1.3-8.9-6.7-7.6-3.2.7-7 5.4-8.4 8.5-1.3 3-2.5 6.2-5.2 8.1-3.7-4-1.5-6.8-3.5-11.8-1-1.8-2.3-3.3-3.9-4.5-4.5-2.9-8.8 2.6-8.9 7.3z" fill="#F48046" fill-rule="nonzero" opacity=".8"></path><ellipse fill="#49BC99" fill-rule="nonzero" cx="121.8" cy="60" rx="4.9" ry="9.4"></ellipse><ellipse fill="#49BC99" fill-rule="nonzero" transform="rotate(-63.9 151 63.7)" cx="151" cy="63.7" rx="9.4" ry="4.9"></ellipse><ellipse fill="#49BC99" fill-rule="nonzero" transform="rotate(-23.8 180.4 88.6)" cx="180.4" cy="88.6" rx="9.4" ry="4.9"></ellipse><path d="M121.8 156.8a23.4 23.4 0 0 0-15.3-18.3A18.8 18.8 0 1 0 76 154.6c-2.2 8.5.5 17.5 7 23.3a30.5 30.5 0 1 0 38.8-21z" fill="#F3D49E" fill-rule="nonzero"></path><ellipse fill="#49BC99" fill-rule="nonzero" transform="rotate(-87.1 93.3 142)" cx="93.3" cy="142" rx="9.4" ry="4.9"></ellipse><path d="M219.7 179.7C206 194 180.5 196.5 162 196.5a22 22 0 0 1-8.3-1.1 8.3 8.3 0 0 1-5.3-6c-.5-2.6.8-5.1 1.3-7.7.6-3 .8-6.1.6-9.2-.9-19.7-7.1-54.8 19.4-61.8 10.2-2.7 18.5-5.8 29.2-4 4.5.9 9 2.3 13.1 4.4 3.5 1.7 6.7 4.1 9.3 7 1.7 1.5 3.2 3 4.6 4.7 1.1 1.8 2 3.6 2.8 5.6 3.9 9.4 2.8 19 2.7 28.9 0 7.7-6.6 17-11.7 22.4z" fill="#E5EEFA" fill-rule="nonzero"></path><path d="M75.8 224A98.2 98.2 0 0 1 116 62.3M175.6 62a98.2 98.2 0 1 1-84.2 175.2M203.3 116.4c-3.7-5.3-8.2-10.1-13.2-14.2M118.3 219.7a69.3 69.3 0 0 0 31.5 5.8M109 97.3c-6.9 4.4-13 10-18 16.6" stroke="#20366A" stroke-width="2" stroke-linecap="round"></path><path d="M221.7 142.7c-7.1-27.9-27.1-28-41.3-28.1-13.5.4-30.5 16.1-27.2 43 .7 11.8 2 33.5-3.8 45.1-5.8 11.7.7 36.4 25.3 26.9 24.5-9.6 53-60.3 47-86.9z" fill="#C16453" fill-rule="nonzero"></path><path d="M215.9 198.7c-9 15.4-24 26.5-41.2 30.8-28.6 7.4-31.9-16.6-26.1-28.2 5.7-11.7 5.9-30.9 5.2-42.7.5-25.4 9.1-32.2 21.2-39.5 8.3-5 20.4-11.1 41.5 6.1 8.2 6.7 10.5 15.4 12.5 26.2 2 13.8-3.4 24.5-7.8 36.3" stroke="#20366A" stroke-width="2" stroke-linecap="round"></path><path stroke="#714140" stroke-width="2" opacity=".4" stroke-linecap="round" d="M191.6 131.6l3.9 4.6 18 21M195.5 157.2l14.4 16.8M185.5 168l17.4 20.4M165.9 167.2l29 34M168.5 191.5l18.5 21.6M161.5 203.4l14 16.4M157.7 216.2l7 8"></path><circle stroke="#FFF" stroke-width="4" stroke-linecap="round" transform="rotate(-1.9 177.5 146.3)" cx="177.5" cy="146.3" r="6.5"></circle><path d="M120.8 131.4c-2.5 0-3.2-2-3.2-4.5l-3.9-48c-.4-7.1 4.7-9.7 7.2-9.7 2.4 0 7 2.2 7 9.6l-3.9 48c0 2.6-.7 4.6-3.2 4.6z" stroke="#20366A" stroke-width="2" stroke-linecap="round"></path><path d="M119.4 69.4s-6-11.6 1.2-17.9c6.7-5.8 1.5 17.2 1.5 17.2M126.7 101.1l10.9-23.5c3-6.3 8.8-6.1 11-4.9 2 1.2 5 7.3 1.3 11.9l-21.2 31.3" stroke="#20366A" stroke-width="2" stroke-linecap="round"></path><path d="M147.2 72.2s.4-13 9.8-15c8.7-1.7-7 15.8-7 15.8M138.4 103.6L159.8 89c5.9-3.9 10.7-.8 12 1.4 1.2 2.1.7 8.9-5 10.8l-34.2 16.3" stroke="#20366A" stroke-width="2" stroke-linecap="round"></path><path d="M170.7 89s7-11 16-7.9c8.5 3-14 10-14 10" stroke="#20366A" stroke-width="2" stroke-linecap="round"></path><circle stroke="#20366A" stroke-width="2" stroke-linecap="round" cx="109.1" cy="187.4" r="28.3"></circle><path d="M127.2 214.6a30.4 30.4 0 0 1-47.5-10.4c-7.8-18 .2-34.2 15.6-41.6M92.7 137.7a23.9 23.9 0 0 1 27.7 23.6M76.4 174a23.7 23.7 0 0 1-3.6-12.7c0-7.9 3.9-15.8 10.4-19.7M71.5 147.6a16.4 16.4 0 0 1 29.6-14.2" stroke="#20366A" stroke-width="2" stroke-linecap="round"></path><path d="M101.9 192.1c-2-.8-4.1-6.4-2.3-11 1.8-4.7 8.5-7.6 8.5-7.6 1 2.4 1.5 5 1.6 7.6" stroke="#20366A" stroke-width="2" fill="#49BC99" fill-rule="nonzero" stroke-linecap="round"></path><path d="M114.8 192c-3.3 4.7-8.6 6.8-10.7 5.3-2.1-1.5-2.3-7.2 1-12 3.2-4.7 11.4-6.3 11.4-6.3s1.5 8.2-1.7 13z" stroke="#20366A" stroke-width="2" fill="#49BC99" fill-rule="nonzero" stroke-linecap="round"></path><path d="M93.4 142c.6 4.7-1.5 8.8-3.5 9-2 .4-5.3-3-6-7.6-.6-4.6 3.4-10 3.4-10s5.4 4.1 6 8.7z" stroke="#20366A" stroke-width="2" stroke-linecap="round"></path><path d="M.6 72.5v23.7S.6 109 13.4 109c12.9 0 12.9-12.8 12.9-12.8V72.5M13.4 76.9v62.6" stroke="#20366A" stroke-width="2"></path><rect stroke="#20366A" stroke-width="2" x="7.5" y="138.1" width="11.9" height="97.7" rx="4.4"></rect><path d="M266.1 75v134c0 10.5.4 19 5.6 19 5.3 0 6.8-14.9 6.5-22.6-.3-7.8-2.5-47-2.5-47s5.8-9.7 5.8-31.3-7-60.2-10-60.2c-5.5 0-5.4 8-5.4 8z" stroke="#20366A" stroke-width="2"></path><path d="M260.2 26.3c-4 4.8-9 .6-13 5.4-3.8 4.8 1.3 8.9-2.6 13.7-4 4.8-9 .6-13 5.4-4 5 1.3 8.8-2.7 13.6M258 276.2c-5.4-4.6-.4-10.3-5.7-15-5.4-4.5-10.3 1.3-15.7-3.4-5.3-4.6-.3-10.2-5.8-15M64.3 254.7c-4.5 4.4-9.2-.5-13.8 4-4.5 4.3.3 9.2-4.3 13.5-4.5 4.4-9.2-.5-13.8 4-4.6 4.4.3 9.1-4.3 13.6M146.3 37.4c-1.8-6 4-7.7 2.3-13.6-1.7-5.8-7.7-4-9.5-10-1.8-5.8 4.2-7.6 2.4-13.5M79.4 18.4c3.9 6-2 9.8 1.8 15.7 3.8 6 9.8 2 13.5 8M206.8 291.6c1.8 4.1-2.2 5.9-.4 9.9 1.8 4 5.8 2.1 7.6 6.1" stroke="#FFCB47" stroke-width="3" opacity=".6" stroke-linecap="round" stroke-linejoin="round"></path><path d="M208.7 26.7c.3 0 .6.2.7.6l.3 3.4c0 .2.2.4.3.5l3 1.7a.7.7 0 0 1 0 1.1l-3 1.5c-.2 0-.4.3-.4.5l-.6 3.4c0 .3-.4.5-.7.5-.2 0-.3 0-.5-.2l-2.3-2.5a.7.7 0 0 0-.5-.2l-3.5.5a.7.7 0 0 1-.7-1l1.7-3v-.7l-1.5-3a.7.7 0 0 1 .6-1h.1l3.4.7h.1l.5-.2 2.5-2.4.4-.2zm0-2.7c-1 0-1.8.3-2.4 1l-1.7 1.5-2.3-.4h-.7a3.4 3.4 0 0 0-3 4.9l1 2-1.1 2.1a3.4 3.4 0 0 0 3 5h.4l2.3-.3 1.6 1.8a3.4 3.4 0 0 0 5.9-1.7l.4-2.4 2.1-1a3.4 3.4 0 0 0 .2-6l-2-1.1-.4-2.4c-.2-1.7-1.6-3-3.3-3zM164.2 284.2c.3 0 .6.2.6.6l.4 3.4c0 .2.2.4.4.5l3 1.6a.7.7 0 0 1 0 1.2l-3.1 1.5c-.2 0-.3.2-.4.5l-.6 3.4c0 .3-.3.5-.6.5-.2 0-.4 0-.5-.2l-2.4-2.5a.7.7 0 0 0-.5-.2l-3.5.5a.7.7 0 0 1-.7-1l1.7-3v-.7l-1.5-3a.7.7 0 0 1 .6-1h.1l3.4.7h.2l.4-.2 2.5-2.4.5-.2zm0-2.7c-1 0-1.8.3-2.4 1l-1.7 1.6-2.3-.5h-.7a3.4 3.4 0 0 0-3 4.9l1 2.1-1.1 2a3.4 3.4 0 0 0 3 5.1h.4l2.3-.3 1.6 1.7a3.4 3.4 0 0 0 5.9-1.7l.4-2.3 2.1-1a3.4 3.4 0 0 0 .2-6.1l-2-1.1-.4-2.4c-.2-1.7-1.6-3-3.3-3z" fill="#FFCB47" fill-rule="nonzero" opacity=".6"></path><circle stroke="#FFCB47" stroke-width="3" opacity=".6" stroke-linecap="round" stroke-linejoin="round" cx="212.3" cy="267.1" r="4"></circle><circle stroke="#FFCB47" stroke-width="3" opacity=".6" stroke-linecap="round" stroke-linejoin="round" cx="39.8" cy="241.7" r="4"></circle><circle stroke="#FFCB47" stroke-width="3" opacity=".6" stroke-linecap="round" stroke-linejoin="round" cx="241.6" cy="81.1" r="4"></circle><circle stroke="#FFCB47" stroke-width="3" opacity=".6" stroke-linecap="round" stroke-linejoin="round" cx="100.7" cy="281.9" r="4"></circle><circle stroke="#FFCB47" stroke-width="3" opacity=".6" stroke-linecap="round" stroke-linejoin="round" cx="72.2" cy="300.3" r="7.8"></circle><circle stroke="#FFCB47" stroke-width="3" opacity=".6" stroke-linecap="round" stroke-linejoin="round" cx="177.4" cy="10.1" r="6.4"></circle><circle stroke="#FFCB47" stroke-width="3" opacity=".6" stroke-linecap="round" stroke-linejoin="round" cx="245.7" cy="221.5" r="6.4"></circle><circle stroke="#FFCB47" stroke-width="2" opacity=".6" stroke-linecap="round" stroke-linejoin="round" cx="105.2" cy="14.2" r="4.5"></circle><circle stroke="#FFCB47" stroke-width="3" opacity=".6" stroke-linecap="round" stroke-linejoin="round" cx="72.6" cy="61.9" r="4.5"></circle><path d="M36.7 38.6l.2.1 2.5 1.4h.5l2.5-1.2a.5.5 0 0 1 .8.6l-.6 2.7c0 .2 0 .3.2.5l1.9 2.1a.5.5 0 0 1-.4 1l-2.8.2c-.2 0-.3.1-.4.3l-1.4 2.5a.5.5 0 0 1-1 0l-1.1-2.6c-.1-.2-.2-.3-.4-.3l-2.7-.6a.5.5 0 0 1-.3-1l2.1-1.8.2-.5-.4-2.8a.5.5 0 0 1 .6-.6zm0-2.7a3.3 3.3 0 0 0-3.3 3.7l.3 1.6-1.3 1.2A3.3 3.3 0 0 0 34 48l1.6.3.7 1.6a3.3 3.3 0 0 0 5.8.2l.9-1.5 1.6-.1a3.3 3.3 0 0 0 2-5.5l-1-1.2.3-1.6a3.3 3.3 0 0 0-4.6-3.7l-1.5.8-1.5-.9c-.5-.3-1-.4-1.6-.4v-.1z" fill="#FFCB47" fill-rule="nonzero" opacity=".6"></path><path d="M133.2 322.6c-1.8-6 4-7.7 2.3-13.6-1.7-5.9-7.7-4-9.5-10-1.8-5.8 4.1-7.6 2.3-13.5" stroke="#FFCB46" stroke-width="2.5" opacity=".6"></path></g></svg>