<svg xmlns="http://www.w3.org/2000/svg" width="66" height="45" viewBox="0 0 66 45"><g fill="none" fill-rule="evenodd"><g stroke="#0F346C" stroke-linecap="round" stroke-linejoin="round" stroke-width="1.5"><path d="M52.5 40.5a4 4 0 0 1-3.9 3.2h-24a4 4 0 0 1-4-3.2L14 4.3A2.6 2.6 0 0 1 16.5 1h40.1a2.6 2.6 0 0 1 2.7 3.2l-6.8 36.2z"></path><path d="M54.7 1H62c1.6 0 2.8 1.3 2.8 2.9 0 1.5-1.2 2.8-2.8 2.8h-3.2M57.2 13.4H49M55.4 23.4h-8.2M53.8 33.3h-8.2M56.3 18.4h-5.5M54.7 28.4H49M15.6 14.2h-4.7c-3.4 0-4.6.7-4.6 7v7a2.7 2.7 0 1 1-5.3 0V16.7c0-4.3 1.4-8 6.5-8H14"></path></g><path d="M1-10h64v64H1z"></path></g></svg>