<svg xmlns="http://www.w3.org/2000/svg" width="66" height="63" viewBox="0 0 66 63"><g fill="none" fill-rule="evenodd"><g stroke="#0F346C" stroke-linecap="round" stroke-linejoin="round" stroke-width="1.5"><path d="M10.3 46.7c-.5 1-.7 2.3-.3 3.4L1.6 35.6c-.8-.8-.8-2.2-.1-3.1L5.8 25l-4.5-2.7h14.4L23.1 35l-4.5-2.6-8.3 14.3z"></path><path d="M13.4 42H28v14.6H17c-6.5-.6-7.7-7.2-6.6-9.3M59.3 42c1.2 0 2.3-.5 3-1.4L54.2 55c-.7 1.6-1.7 1.8-2.7 1.7H43V62l-7.3-12.5L43 36.8V42h16.4z"></path><path d="M53 41.9L45.1 28l12.7-7.3 6 10.5.2.3c2.6 6-2.5 10.3-4.8 10.4M24.3 1H44c1.6 0 2.4.6 2.8 1.5L51 10l4.5-2.6L48.4 20H33.8l4.5-2.6L30 3"></path><path d="M18.9 4.3c3.8-5.2 10.1-3 11.3-1l3.1 5.3-8 13.8-12.7-7.3 6.1-10.5.2-.3z"></path></g><path d="M1-1h64v64H1z"></path></g></svg>