<svg xmlns="http://www.w3.org/2000/svg" width="63" height="70" viewBox="0 0 68 64"><defs><clipPath id="a"><path clip-rule="evenodd" d="M-857-2207H553v4236H-857z"></path></clipPath></defs><g clip-path="url(#a)"><path fill="none" stroke="#0F346C" stroke-width="1.5" d="M34.6 21.6C32 10.2 26.7 0 18.8 0 7.5 0 1.1 23.3 1 38.8c0 8.9 7.5 17 18 17 2 0 3.9-.2 5.8-.9"></path></g><defs><clipPath id="b"><path clip-rule="evenodd" d="M-857-2207H553v4236H-857z"></path></clipPath></defs><g clip-path="url(#b)"><path fill="none" stroke="#0F346C" stroke-width="1.5" d="M34.3 62.5c9.6 3.8 19.7-1 23-9.3 5.4-14.4 8.6-38.3-2.4-42.7-10.6-4.2-25 15.1-31 29.4-3.4 8.3.7 18.7 10.4 22.6z"></path></g><defs><clipPath id="c"><path clip-rule="evenodd" d="M-857-2207H553v4236H-857z"></path></clipPath></defs><g clip-path="url(#c)"><path fill="#0F346C" d="M24.2 8.7a1 1 0 1 0 0-2.2 1 1 0 0 0 0 2.2z"></path></g><defs><clipPath id="d"><path clip-rule="evenodd" d="M-857-2207H553v4236H-857z"></path></clipPath></defs><g clip-path="url(#d)"><path fill="#0F346C" d="M22 6.2a1 1 0 1 0 0-2.1 1 1 0 0 0 0 2.1z"></path></g><defs><clipPath id="e"><path clip-rule="evenodd" d="M-857-2207H553v4236H-857z"></path></clipPath></defs><g clip-path="url(#e)"><path fill="#0F346C" d="M21 9.2A1 1 0 1 0 21 7a1 1 0 0 0 0 2.2z"></path></g><defs><clipPath id="f"><path clip-rule="evenodd" d="M-857-2207H553v4236H-857z"></path></clipPath></defs><g clip-path="url(#f)"><path fill="#0F346C" d="M22.8 11.8a1 1 0 1 0 0-2.1 1 1 0 0 0 0 2.1z"></path></g><defs><clipPath id="g"><path clip-rule="evenodd" d="M-857-2207H553v4236H-857z"></path></clipPath></defs><g clip-path="url(#g)"><path fill="#0F346C" d="M26.3 11.7a1 1 0 1 0 0-2.2 1 1 0 0 0 0 2.2z"></path></g><defs><clipPath id="h"><path clip-rule="evenodd" d="M-857-2207H553v4236H-857z"></path></clipPath></defs><g clip-path="url(#h)"><path fill="none" stroke="#0F346C" stroke-width="1.5" d="M42.5 53a10.4 10.4 0 1 0 0-20.8 10.4 10.4 0 0 0 0 20.9z"></path></g><defs><clipPath id="i"><path clip-rule="evenodd" d="M-857-2207H553v4236H-857z"></path></clipPath></defs><g clip-path="url(#i)"><path fill="#0F346C" d="M48.5 43a1 1 0 1 0-.5-2 1 1 0 0 0 .5 2z"></path></g><defs><clipPath id="j"><path clip-rule="evenodd" d="M-857-2207H553v4236H-857z"></path></clipPath></defs><g clip-path="url(#j)"><path fill="#0F346C" d="M52.6 41a1 1 0 1 0-.6-2 1 1 0 0 0 .6 2z"></path></g><defs><clipPath id="k"><path clip-rule="evenodd" d="M-857-2207H553v4236H-857z"></path></clipPath></defs><g clip-path="url(#k)"><path fill="#0F346C" d="M48.7 39.9a1 1 0 1 0-.5-2 1 1 0 0 0 .5 2z"></path></g><defs><clipPath id="l"><path clip-rule="evenodd" d="M-857-2207H553v4236H-857z"></path></clipPath></defs><g clip-path="url(#l)"><path fill="#0F346C" d="M46.2 37.8a1 1 0 1 0-.5-2 1 1 0 0 0 .5 2z"></path></g><defs><clipPath id="m"><path clip-rule="evenodd" d="M-857-2207H553v4236H-857z"></path></clipPath></defs><g clip-path="url(#m)"><path fill="#0F346C" d="M43 38.9a1 1 0 1 0-.6-2.1 1 1 0 0 0 .6 2z"></path></g></svg>