<svg xmlns="http://www.w3.org/2000/svg" width="303" height="328" viewBox="0 0 303 328"><g transform="translate(-16 -1)" fill="none" fill-rule="evenodd"><path d="M.8.5h330v330H.8z"></path><path d="M115.2 106.3c1 3.3-3.1 5.6-5.7 6.4-2.6.8-7-1.3-8.2-4.6-1-2.7-3.6-5-3.6-5.8 0-1.2 2.7 2 5 1.8 2.4-.3 4.4-4 5.5-4.3 1.3-.4-1.2 5.5.7 6.6 1.9 1 5.8-1.7 6.3 0z" fill="#32CA9F" fill-rule="nonzero"></path><ellipse fill="#E5EEFA" fill-rule="nonzero" cx="222.4" cy="310.6" rx="96.4" ry="17.6"></ellipse><path d="M261.5 147.8c3.5-1.6 7-2.8 10.8-3.5 2.6 3.5 1.5 8.4.1 12.5-.6 2.1-1.6 4.2-2.8 6-4.8 7-17 7.4-18-2.9-.4-5.5 4.4-9.5 10-12.1z" fill="#E5EEFA" fill-rule="nonzero"></path><path d="M156.6 214.2l33 84.4a3.5 3.5 0 0 0 4.7 2l103-40.3a8.4 8.4 0 0 0 4.7-11l-31.8-81-29.6-16.2-110.8 45.5 26.8 16.6z" fill="#FCAF8B" fill-rule="nonzero"></path><path d="M211.7 85.1c-29.4 15.8-12.8 20-24.1 30-4.8 4.1-4.6 12 .8 14.8 7.4 3.7 24.7-1 37.8-9.6 22.7-14.8 16.5-25 12.8-29.7a26.3 26.3 0 0 0-27.3-5.5z" fill="#EB6F75" fill-rule="nonzero"></path><path d="M114.4 30c-5.2-.7-10.9 3.4-10.8 8.6 0 6.7 8.3 10.5 10 17 .6 2 .4 4.4 1.4 6.5 1.2 2.7 4.2 4.2 7.1 5.2a50.2 50.2 0 0 0 29.5-.2c3-1.3 5.8-3.6 9.2-3.9 1.3 0 2.6-.1 3.8-.5 1.6-.8 2.2-2.7 2.7-4.4.9-2.5 1.4-5 1.5-7.6 0-2.6-1.2-5-3.2-6.7-1.8-1-3.8-1.5-5.8-1.4-5.9-.3-10.7 2.6-16.2 3-4.4.4-8.8-3.1-11.8-6-1-1-2.2-2-3.6-2.5-1.3-.5-2.6-.4-3.9-.7-2.3-.6-2-2.5-3.4-3.7a13.4 13.4 0 0 0-6.5-2.7z" fill="#DDAD7F" fill-rule="nonzero"></path><path d="M106.6 117.4c5.7-1.2 8.8 3.6 8.8 10.2s-9.2 44-14.9 43.6c-13.3-1.2-4.4-41.1-1.4-49 1.2-3 4.2-5 7.5-4.8z" fill="#EF8F65" fill-rule="nonzero"></path><ellipse fill="#32CA9F" fill-rule="nonzero" transform="rotate(-52.3 50 58)" cx="50.1" cy="58.1" rx="6.2" ry="4.9"></ellipse><ellipse fill="#32CA9F" fill-rule="nonzero" transform="rotate(-52.3 41 49)" cx="41" cy="49.1" rx="6.2" ry="4.9"></ellipse><ellipse fill="#32CA9F" fill-rule="nonzero" transform="rotate(-52.3 22.5 55.4)" cx="22.5" cy="55.4" rx="6.2" ry="4.9"></ellipse><ellipse fill="#32CA9F" fill-rule="nonzero" transform="rotate(-52.3 32.3 67)" cx="32.3" cy="67.1" rx="6.2" ry="4.9"></ellipse><ellipse fill="#32CA9F" fill-rule="nonzero" transform="rotate(-52.3 41.5 78.2)" cx="41.5" cy="78.2" rx="6.2" ry="4.9"></ellipse><path d="M161.8 85.1c.4 0 .7.3.7.7l.4 3.7c0 .2.2.4.4.5l3.3 1.8a.7.7 0 0 1 0 1.3l-3.4 1.5c-.2.1-.4.3-.4.5l-.6 3.7c-.1.4-.4.6-.8.6-.2 0-.3 0-.5-.2l-2.5-2.7a.7.7 0 0 0-.5-.3h-.1l-3.7.5h-.1a.7.7 0 0 1-.7-1l1.9-3.3v-.6l-1.7-3.4a.7.7 0 0 1 .7-1h.1l3.7.7h.1c.2 0 .4 0 .5-.2l2.7-2.6.5-.2zm0-3c-1 0-1.9.4-2.6 1.1l-1.8 1.8-2.5-.5h-.7a3.7 3.7 0 0 0-3.3 5.2L152 92l-1.2 2.2a3.7 3.7 0 0 0 3.1 5.5h.6l2.5-.4 1.7 1.9a3.7 3.7 0 0 0 6.3-1.9l.4-2.5 2.4-1a3.7 3.7 0 0 0 .2-6.6l-2.3-1.2-.3-2.5a3.7 3.7 0 0 0-3.6-3.3z" fill="#FFCB47" fill-rule="nonzero" opacity=".6"></path><path d="M270.7 166.3l-29.2-14c-.4-.2-.9-.2-1.2 0l-114.6 45.6a1.5 1.5 0 0 0-.2 2.7l27.2 15.4" stroke="#0F346C" stroke-width="2"></path><path d="M270 167.8l5-22.9a1.5 1.5 0 0 0-2-1.6L245.8 155" stroke="#0F346C" stroke-width="2"></path><path d="M96.6 124.5a7 7 0 1 1 14 1.9l-9.7 42.8a3 3 0 0 1-6.1-.8l1.8-43.9zM105.8 113.5l-.7 5.2M97.7 102.7c-2 1.8.5 6.3 7.5 9.1l1.4.2c7.6-1 11.2-4.8 9.8-7-1.4-2.3-7.3 1.9-7.3 1.9s1.3-7.4-1.3-7.7" stroke="#0F346C" stroke-width="2" stroke-linecap="round"></path><path d="M107.4 99.4c-2.6-.3-3.4 6.8-3.4 6.8s-4.4-5.2-6.4-3.4M97.5 130.3l8.5.9M103.8 140.3l3.3.7M99.5 155.3l3.8 1.4" stroke="#0F346C" stroke-width="2" stroke-linecap="round"></path><ellipse stroke="#FFF" stroke-width="2" transform="rotate(-29 209.8 103)" cx="209.8" cy="103" rx="6.6" ry="4.4"></ellipse><path d="M204.4 87c-27 19.4-10.2 21.5-20.1 32.8-4.2 4.7-3.1 12.6 2.6 14.6 7.9 2.8 24.4-4.1 36.3-14.2 20.7-17.5 13.3-27 9-31C228 85 214.4 81 204.4 87z" stroke="#0F346C" stroke-width="2"></path><path d="M181.7 129.9c.3 7.4 2.4 11.5 6.3 12.4 5.8 1.4 12.4 1.7 24.4-4.7 12-6.5 23.4-15 26.4-23.4a23.6 23.6 0 0 0-1.9-17.4" stroke="#0F346C" stroke-width="2"></path><path d="M139.6 52.6c-.7-1.1-1.6-2.2-2.6-3.1-.1-7-5.7-12.5-12.6-12.5a13 13 0 0 0-10.2-5.9A10.9 10.9 0 0 0 110 52s-.4 19.6 20 13.3M122.8 66.5c-.1 2 11.4 9.5 17.1 0" stroke="#0F346C" stroke-width="2" stroke-linecap="round" stroke-linejoin="round"></path><path d="M163.2 44s-15.9-4.8-25.4 11.4c-5.7 12 10.4 16 14 12 2.6-2.8 6.3-4.3 10-4 2.2.1 4.8.3 8.5-3.8 3.7-4.2.4-14.2-7.1-15.6zM162.8 49.1a2.4 2.4 0 0 0-3.4-1.8M117.2 50.7a3.7 3.7 0 0 1-.3 5.3M147 50.8a3.7 3.7 0 0 1-.3 5.3M132.2 46.3a2.6 2.6 0 0 1-3.7-2.2M161.2 60.4a2.6 2.6 0 0 1 1.7-4M126.4 61.6a2.6 2.6 0 0 1 4.1-1" stroke="#0F346C" stroke-width="2" stroke-linecap="round" stroke-linejoin="round"></path><path d="M39 57.1c3.7-1.6 5.9-3.8 6.6-6.7.7-2.8-.2-5.8-2.7-9a10.1 10.1 0 0 0-4 15.7zM33.6 57.6c-1.7-3.7-4-5.8-6.8-6.5-3-.7-5.9.3-9 3a10.1 10.1 0 0 0 15.8 3.5zM41.5 63.4c-3.7-1.5-6.9-1.4-9.4.2-2.5 1.5-4 4.3-4.3 8.3a10.1 10.1 0 0 0 13.7-8.5zM49.4 74.1c-3.7-1.4-6.9-1.4-9.4.2-2.5 1.6-4 4.4-4.3 8.4A10.1 10.1 0 0 0 49.4 74zM56.1 52c-4 .2-6.8 1.5-8.5 4-1.6 2.4-1.8 5.6-.5 9.3a10.1 10.1 0 0 0 9-13.3z" stroke="#0F346C" stroke-width="2"></path><path d="M33.9 58.1c5.2-.1 8.6 1.6 10.2 5.2C46.4 68.7 50.9 79.5 61 77" stroke="#0F346C" stroke-width="2"></path><path d="M133 109.8c2.4.6 4.7 1.1 6.4 4 3.3 5.6-3 9.2.3 15a7 7 0 0 0 4 3.2c3 1 6.6.7 8.9 4.5 1.6 2.9.9 5.2.1 7.5M56.3 12.3c2.4 0 4.8 0 7 2.3 4.5 4.8-.8 9.8 3.7 14.6a7 7 0 0 0 4.5 2.3c3.3.3 6.7-.9 9.8 2.4 2.2 2.4 2 4.8 1.8 7.3M244.6 10c1.3 2 2.5 4.1 1.6 7.2-1.8 6.3-8.8 4.4-10.5 10.7a7 7 0 0 0 .3 5c1.4 3 4.2 5.4 3 9.7-1 3.1-3.1 4.2-5.3 5.3" stroke="#FFCB47" stroke-width="3" opacity=".6" stroke-linecap="round" stroke-linejoin="round"></path><circle stroke="#FFCB47" stroke-width="3" opacity=".6" cx="30.9" cy="105.9" r="6.6"></circle><circle stroke="#FFCB47" stroke-width="3" opacity=".6" cx="281.7" cy="69.2" r="6.6"></circle><circle stroke="#FFCB47" stroke-width="3" opacity=".6" cx="171.7" cy="17.9" r="5.1"></circle><circle stroke="#FFCB47" stroke-width="3" opacity=".6" cx="136.5" cy="171.9" r="3.7"></circle><circle stroke="#FFCB47" stroke-width="3" opacity=".6" cx="57.3" cy="145.5" r="3.7"></circle><circle stroke="#FFCB47" stroke-width="3" opacity=".6" cx="275.8" cy="6.2" r="3.7"></circle><path d="M271.2 97.7c1.3 2 2.6 4 1.8 7.2-1.7 6.4-8.7 4.5-10.4 10.8a7 7 0 0 0 .4 5c1.5 3 4.3 5.3 3.1 9.6-.8 3.2-3 4.3-5.2 5.5M201.5 55.3a7 7 0 0 0 1.1 5c1.8 2.7 4.9 4.6 4.3 9-.5 3.3-2.5 4.7-4.5 6" stroke="#FFCB47" stroke-width="3" opacity=".6" stroke-linecap="round" stroke-linejoin="round"></path><path d="M253.7 190.7l2 5.7-2.8 1.1-2.7 1.1-2.6-5.5-2.2 1.7c1.1 3.8 5.8 12 .8 19l4.9 12a19 19 0 0 0 22.8-9.2l-4.9-12c-8.4-1.6-10.8-10.8-12.6-14.2l-2.7.3z" fill="#0F346C"></path><path d="M286.1 271.4L194 307.8a5.6 5.6 0 0 1-7.2-3.2l-35.1-89 118.6-47.3 28 70.7" stroke="#20376A" stroke-width="2" stroke-linecap="round" stroke-linejoin="round"></path><circle fill="#0F346C" fill-rule="nonzero" cx="111.9" cy="40.5" r="1.8"></circle><circle fill="#0F346C" fill-rule="nonzero" cx="147" cy="64.3" r="2"></circle></g></svg>